<svg xmlns="http://www.w3.org/2000/svg" width="128" height="128" viewBox="0 0 33.867 33.867"><defs><linearGradient id="b"><stop offset="0" stop-color="red"/><stop offset="1" stop-color="red" stop-opacity="0"/></linearGradient><linearGradient id="a"><stop offset="0" stop-color="#f6f600"/><stop offset="1" stop-color="#f69134"/></linearGradient></defs><path d="M 64 4 A 60.000003 60.000003 0 0 0 4 64 A 60.000003 60.000003 0 0 0 16.351562 100.46094 C 13.899145 107.19424 12.991676 115.08738 15.451172 117.54688 C 18.107373 120.20306 27.100709 118.93805 34.125 116.0332 A 60.000003 60.000003 0 0 0 64 124 A 60.000003 60.000003 0 0 0 124 64 A 60.000003 60.000003 0 0 0 64 4 z M 47.773438 45.384766 C 49.240127 45.424402 50.71915 45.821388 52.083984 46.609375 L 78.1875 61.679688 L 89.322266 49.650391 C 90.98045 47.750709 93.17985 47.592563 94.761719 48.505859 C 96.343576 49.419148 97.308252 51.403213 96.492188 53.789062 L 89.402344 75.996094 C 89.213806 76.586887 88.441062 77.904124 88.351562 78.058594 C 85.830005 82.426061 80.283483 83.912182 75.916016 81.390625 L 49.8125 66.320312 L 38.677734 78.349609 C 35.361382 82.148923 29.875681 78.982644 31.507812 74.210938 L 38.597656 52.003906 C 38.798368 51.417142 39.560929 50.095951 39.650391 49.941406 C 41.383959 46.938778 44.546721 45.297565 47.773438 45.384766 z " paint-order="fill markers stroke" transform="scale(.26458)"/></svg>