<svg xmlns="http://www.w3.org/2000/svg" width="128" height="128" viewBox="0 0 33.867 33.867"><defs><linearGradient id="a"><stop offset="0" stop-color="#f6f600"/><stop offset="1" stop-color="#f69134"/></linearGradient></defs><path d="m 49.804688,4.0019531 c -25.203048,0 -45.8027353,20.5996869 -45.8027349,45.8027349 -4e-7,11.961135 4.6095464,22.964411 12.1562499,31.123046 l 3.438916,3.723018 c 1.852548,1.685665 3.90837,1.935413 5.95287,0.526672 l 8.660429,-7.647604 c 1.788099,-1.471257 1.660919,-4.867155 0.02296,-6.505118 l -3.39939,-3.67314 c -4.253243,-4.59812 -6.835937,-10.680025 -6.835937,-17.546874 0,-14.468987 11.337654,-25.806641 25.806641,-25.806641 H 78.19727 c 14.468987,0 25.80664,11.74146 25.80664,26.210447 0,14.468983 -11.337653,25.404787 -25.80664,25.404787 H 67.971283 V 43.085522 c 0,-3.323981 -2.676019,-6 -6,-6 H 51.832611 c -3.323981,0 -6,2.676019 -6,6 V 96.3125 c 0,2.420568 -2.43656,4.92345 -7.017578,2.996094 l -1.889832,-1.06802 c -2.974961,-1.482711 -6,0.613522 -6,3.937496 v 10.70003 c 0,5.07398 2.426019,6.625 6,8.125 0,0 31.046082,13.85878 31.046082,-17.57065 v -7.823075 h 10.225983 c 25.203054,0 45.804684,-20.197835 45.804684,-45.400881 0,-25.203048 -20.60163,-46.2065409 -45.804684,-46.2065409 z" paint-order="fill markers stroke" transform="scale(.26458)"/></svg>