<svg xmlns="http://www.w3.org/2000/svg" width="128" height="128" viewBox="0 0 33.867 33.867"><defs><linearGradient id="a"><stop offset="0" stop-color="#f6f600"/><stop offset="1" stop-color="#f69134"/></linearGradient></defs><path d="M 105.72266 13.646484 A 12.231632 12.231632 0 0 0 95.697266 18.875 L 73.945312 13.888672 A 4.3494598 4.3494598 0 0 0 72.884766 13.785156 A 4.3494598 4.3494598 0 0 0 68.857422 16.730469 L 60.814453 40.347656 A 54.770528 37.034665 0 0 0 26.419922 50.378906 A 14.677959 14.677959 0 0 0 18.675781 48.166016 A 14.677959 14.677959 0 0 0 3.9960938 62.845703 A 14.677959 14.677959 0 0 0 9.4199219 74.236328 A 54.770528 37.034665 0 0 0 9.2285156 77.318359 A 54.770528 37.034665 0 0 0 64 114.35352 A 54.770528 37.034665 0 0 0 118.77148 77.318359 A 54.770528 37.034665 0 0 0 118.58008 74.236328 A 14.677959 14.677959 0 0 0 124.00391 62.845703 A 14.677959 14.677959 0 0 0 109.32422 48.166016 A 14.677959 14.677959 0 0 0 101.57812 50.378906 A 54.770528 37.034665 0 0 0 69.947266 40.505859 L 75.822266 23.246094 L 93.574219 27.308594 A 12.231632 12.231632 0 0 0 105.72266 38.109375 A 12.231632 12.231632 0 0 0 117.95508 25.878906 A 12.231632 12.231632 0 0 0 105.72266 13.646484 z M 44.851562 62.441406 A 7.8826074 7.8826074 0 0 1 44.957031 62.441406 A 7.8826074 7.8826074 0 0 1 52.839844 70.324219 A 7.8826074 7.8826074 0 0 1 44.957031 78.207031 A 7.8826074 7.8826074 0 0 1 37.074219 70.324219 A 7.8826074 7.8826074 0 0 1 44.851562 62.441406 z M 82.9375 62.441406 A 7.8826074 7.8826074 0 0 1 83.042969 62.441406 A 7.8826074 7.8826074 0 0 1 90.925781 70.324219 A 7.8826074 7.8826074 0 0 1 83.042969 78.207031 A 7.8826074 7.8826074 0 0 1 75.160156 70.324219 A 7.8826074 7.8826074 0 0 1 82.9375 62.441406 z M 46.246094 86.333984 A 4.3497103 4.3497103 0 0 1 48.742188 87.162109 C 48.742187 87.162109 61.91857 97.303693 79.900391 86.921875 A 4.3497103 4.3497103 0 0 1 85.837891 88.511719 A 4.3497103 4.3497103 0 0 1 84.25 94.451172 C 62.354535 107.09251 43.646484 94.208984 43.646484 94.208984 A 4.3497103 4.3497103 0 0 1 42.666016 88.142578 A 4.3497103 4.3497103 0 0 1 46.070312 86.335938 A 4.3497103 4.3497103 0 0 1 46.246094 86.333984 z " paint-order="fill markers stroke" transform="scale(.26458)"/></svg>