<svg xmlns="http://www.w3.org/2000/svg" width="128" height="128" viewBox="0 0 33.867 33.867"><defs><linearGradient id="a"><stop offset="0" stop-color="#f6f600"/><stop offset="1" stop-color="#f69134"/></linearGradient></defs><path style="line-height:normal;font-variant-ligatures:normal;font-variant-position:normal;font-variant-caps:normal;font-variant-numeric:normal;font-variant-alternates:normal;font-variant-east-asian:normal;font-feature-settings:normal;font-variation-settings:normal;text-indent:0;text-align:start;text-decoration-line:none;text-decoration-style:solid;text-decoration-color:#000;text-transform:none;text-orientation:mixed;white-space:normal;shape-padding:0;shape-margin:0;inline-size:0;isolation:auto;mix-blend-mode:normal;solid-color:#000;solid-opacity:1" d="m 22.912602,1.0567933 -5.289176,0.00154 V 22.894399 c 0,1.879824 -1.122255,3.556703 -2.858986,4.276081 -1.736733,0.719377 -3.714028,0.325441 -5.0432639,-1.003798 C 8.3919396,24.837447 7.998002,22.858082 8.7173793,21.121352 9.436757,19.38462 11.113635,18.264949 12.993459,18.264949 h 1.710535 v -5.289692 h -1.710535 c -4.0043223,0 -7.6309355,2.424009 -9.1633233,6.12352 -1.5323881,3.699511 -0.6818199,7.977799 2.149664,10.809282 2.8314833,2.831484 7.1102863,3.682051 10.8097973,2.149663 3.699513,-1.532388 6.123005,-5.159 6.123005,-9.163323 V 10.78633 c 1.440079,0.858005 3.141229,1.487871 5.23338,1.487871 h 2.643553 V 6.982964 h -2.643553 c -2.974623,0 -3.781104,-1.2098821 -4.487379,-2.7453293 C 22.953,2.7036478 22.912602,1.0567933 22.912602,1.0567933 Z" color="#000" enable-background="accumulate" font-family="sans-serif" font-weight="400" overflow="visible" paint-order="fill markers stroke"/></svg>