<svg xmlns="http://www.w3.org/2000/svg" width="128" height="128" viewBox="0 0 33.867 33.867"><defs><linearGradient id="a"><stop offset="0" stop-color="#f6f600"/><stop offset="1" stop-color="#f69134"/></linearGradient></defs><path d="m 1.3568083,8.5146047 c 0,0 4.3371739,-3.7804195 6.3599005,-5.1176902 C 10.442379,1.5949102 13.797044,2.6040326 14.076602,6.9288417 14.356159,11.253651 15.26472,22.714395 17.85061,21.849433 20.436501,20.984471 25.049172,11.902372 23.930949,10.31661 22.812725,8.7308452 19.10861,10.74909 20.087055,8.0821237 21.065501,5.4151584 24.839506,0.3695481 30.849956,3.180674 36.860407,5.9917999 27.844732,22.930636 19.877388,29.201608 11.910046,35.472581 9.6037132,27.832085 8.4155959,19.975349 7.2274861,12.118613 6.7382637,8.8029258 4.6415946,9.5237269 4.1199768,9.7030519 2.9953126,10.040095 2.5525012,10.164991 1.2154305,10.542118 0.66450321,9.2286175 1.3568083,8.5146047 Z" paint-order="fill markers stroke"/></svg>