<svg xmlns="http://www.w3.org/2000/svg" width="128" height="128" viewBox="0 0 33.867 33.867"><defs><linearGradient id="a"><stop offset="0" stop-color="#f6f600"/><stop offset="1" stop-color="#f69134"/></linearGradient></defs><path fill="#06f" d="M11.310938 21.563541h2.116666c.732896 0 1.322917.590021 1.322917 1.322917v8.59896c0 .732896-.590021 1.322916-1.322917 1.322916h-2.116666c-.732896 0-1.3229171-.59002-1.3229171-1.322916v-8.59896c0-.732896.5900211-1.322917 1.3229171-1.322917zM20.439063 21.563541h2.116666c.732896 0 1.322917.590021 1.322917 1.322917v8.59896c0 .732896-.590021 1.322916-1.322917 1.322916h-2.116666c-.732896 0-1.322917-.59002-1.322917-1.322916v-8.59896c0-.732896.590021-1.322917 1.322917-1.322917z" paint-order="fill markers stroke"/><path fill="#00a1ff" d="m 9.0950522,13.978092 c -0.7328958,0 -1.3229167,0.59002 -1.3229167,1.322916 v 10.495867 c 0,1.026054 0.8260292,1.852083 1.8520833,1.852083 H 24.242448 c 1.026054,0 1.852083,-0.826029 1.852083,-1.852083 V 15.301008 c 0,-0.732896 -0.59002,-1.322916 -1.322917,-1.322916 z" paint-order="fill markers stroke"/><path fill="#00a1ff" d="m 38.386719,4.0039062 c -0.358713,0.023182 -0.716724,0.1279681 -1.056641,0.3242188 -1.208594,0.697782 -1.540172,2.1902844 -0.921875,3.4414062 l 4.730469,9.5722658 C 33.922833,23.678324 29.375,27.846577 29.375,38.248476 v 1.875 c 0,2.770001 2.23,5 5,5 h 59.25 c 2.770004,0 5,-2.229999 5,-5 v -1.875 c 0,-10.401899 -4.547833,-14.570152 -11.763672,-20.906679 L 91.591797,7.7695312 C 92.210094,6.5184094 91.878513,5.025907 90.669922,4.328125 90.216704,4.066457 89.728101,3.9681528 89.253906,4.0078125 88.463588,4.0739127 87.714441,4.5243609 87.230469,5.25 l -5.552735,8.324219 C 76.508401,10.510828 70.468601,8.75 64,8.75 c -6.4686,0 -12.508401,1.760828 -17.677734,4.824219 L 40.771484,5.25 C 40.287512,4.5243609 39.534463,4.073913 38.744141,4.0078125 38.625593,3.9978974 38.50629,3.9961788 38.386719,4.0039062 Z" paint-order="fill markers stroke" transform="scale(.26458)"/><path fill="#a8d0ff" d="M3.4395823 13.892561c1.3192125 0 2.38125 1.062037 2.38125 2.38125v6.482293c0 1.319212-1.0620375 2.38125-2.38125 2.38125-1.3192124 0-2.3812499-1.062038-2.3812499-2.38125v-6.482293c0-1.319213 1.0620375-2.38125 2.3812499-2.38125zM30.427085 13.892561c1.319213 0 2.38125 1.062037 2.38125 2.38125v6.482293c0 1.319212-1.062037 2.38125-2.38125 2.38125-1.319212 0-2.38125-1.062038-2.38125-2.38125v-6.482293c0-1.319213 1.062038-2.38125 2.38125-2.38125z" paint-order="fill markers stroke"/><g fill="#fff" transform="translate(.516 -.702)"><path d="M12.862346 10.14956a1.0289876 1.0289876 0 01-1.028988-1.0289873 1.0289876 1.0289876 0 011.028988-1.028988 1.0289876 1.0289876 0 011.028987 1.028988 1.0289876 1.0289876 0 01-1.028987 1.0289873zM19.973023 10.14956A1.0289876 1.0289876 0 0118.944035 9.1205727 1.0289876 1.0289876 0 0119.973023 8.0915847 1.0289876 1.0289876 0 0121.00201 9.1205727 1.0289876 1.0289876 0 0119.973023 10.14956z" paint-order="fill markers stroke"/></g></svg>