<svg xmlns="http://www.w3.org/2000/svg" width="128" height="128" viewBox="0 0 33.867 33.867"><defs><linearGradient id="a"><stop offset="0" stop-color="#f6f600"/><stop offset="1" stop-color="#f69134"/></linearGradient></defs><path fill="#00a1ff" d="m 11.343477,5.1769548 c -1.076086,0 -4.3203357,1.3158411 -4.9022201,1.5788841 C 5.8593736,7.0188823 5.2131385,7.8398994 4.4798051,9.194972 3.7464728,10.550044 3.157125,12.133552 2.2006039,14.463556 1.2440824,16.79356 1.0210172,21.286395 1.0529008,22.657408 c 0.031884,1.371015 0.1889526,2.441158 1.5936797,3.252177 1.404727,0.811019 2.6466581,1.658444 3.9539037,2.168588 1.307245,0.510146 2.1996989,0.876509 2.8054959,0.366363 0.6057959,-0.510144 1.0046799,-1.402748 1.0046799,-1.402748 0,0 0.573968,-0.796963 -0.5100896,-1.275225 -1.0840576,-0.47826 -1.626007,-0.813432 -1.5781796,-1.307635 0.047827,-0.494202 0.1270476,-0.764789 0.3980677,-0.701021 0.2710133,0.06377 0.9091292,1.21132 3.3641995,1.737406 2.455072,0.526088 4.848675,0.446681 4.848675,0.446681 0,0 2.393603,0.07941 4.848675,-0.446681 2.455071,-0.526086 3.093188,-1.673641 3.3642,-1.737406 0.271015,-0.06377 0.35024,0.206819 0.398068,0.701021 0.04783,0.494203 -0.494122,0.829376 -1.57818,1.307635 -1.084058,0.478262 -0.51009,1.275225 -0.51009,1.275225 0,0 0.398884,0.892604 1.00468,1.402748 0.605798,0.510146 1.498251,0.143783 2.805496,-0.366363 1.307247,-0.510144 2.549176,-1.357569 3.953904,-2.168588 1.404728,-0.811019 1.561788,-1.881161 1.59368,-3.252177 0.03188,-1.371012 -0.191181,-5.863849 -1.147702,-8.193852 -0.956525,-2.330004 -1.54587,-3.913512 -2.279203,-5.268584 -0.733333,-1.3550726 -1.379568,-2.1760897 -1.961452,-2.4391331 -0.581884,-0.263043 -3.826134,-1.5788841 -4.90222,-1.5788841 -1.076086,0 -1.394294,0.7496353 -1.394294,0.7496353 l -0.374817,0.8292488 c 0,0 -2.520634,-0.4788708 -3.804209,-0.4795573 -1.283574,-6.865e-4 -3.837281,0.4795573 -3.837281,0.4795573 L 12.737771,5.9265901 c 0,0 -0.318208,-0.7496353 -1.394294,-0.7496353 z m 0.116955,9.9481682 c 0.01315,-9.9e-5 0.0263,-9.9e-5 0.03945,0 1.568888,0 2.840723,1.372775 2.840723,3.066178 0,1.693403 -1.271835,3.066177 -2.840723,3.066177 -1.5688878,0 -2.8407226,-1.372774 -2.8407229,-3.066177 -1.501e-4,-1.676911 1.2478101,-3.042888 2.8012689,-3.066178 z m 10.906348,0 c 0.01315,-9.9e-5 0.0263,-9.9e-5 0.03945,0 1.553459,0.02329 2.801419,1.389267 2.801269,3.066178 0,1.693403 -1.271835,3.066177 -2.840723,3.066177 -1.568888,0 -2.840723,-1.372774 -2.840723,-3.066177 0,-1.693403 1.271835,-3.066178 2.840723,-3.066178 z" paint-order="fill markers stroke"/><path fill="#06f" d="M 63.853516 39.775391 A 81.947793 50.646522 0 0 0 9.0605469 52.841797 C 8.7866686 53.514746 8.6072412 53.957567 8.3164062 54.666016 C 4.7012069 63.47233 3.8580107 80.452984 3.9785156 85.634766 C 4.0990221 90.816555 4.6927483 94.860513 10.001953 97.925781 C 15.311158 100.99105 20.006495 104.19494 24.947266 106.12305 C 29.888034 108.05116 33.261155 109.43592 35.550781 107.50781 C 37.840404 105.57971 39.347656 102.20508 39.347656 102.20508 C 39.347656 102.20508 41.517147 99.19237 37.419922 97.384766 C 33.322696 95.577169 31.274313 94.311213 31.455078 92.443359 C 31.635842 90.575509 31.934656 89.551956 32.958984 89.792969 C 33.983287 90.033989 36.394822 94.371018 45.673828 96.359375 C 54.95284 98.347739 64 98.048828 64 98.048828 C 64 98.048828 73.04716 98.34775 82.326172 96.359375 C 91.60518 94.371018 94.016718 90.03397 95.041016 89.792969 C 96.065324 89.551948 96.364155 90.575509 96.544922 92.443359 C 96.725697 94.311213 94.677305 95.577173 90.580078 97.384766 C 86.482851 99.19237 88.652344 102.20508 88.652344 102.20508 C 88.652344 102.20508 90.159596 105.57971 92.449219 107.50781 C 94.738849 109.43592 98.111966 108.05116 103.05273 106.12305 C 107.99351 104.19494 112.68884 100.99105 117.99805 97.925781 C 123.30726 94.860513 123.90095 90.816558 124.02148 85.634766 C 124.14198 80.452988 123.29879 63.472326 119.68359 54.666016 C 119.39302 53.958217 119.2131 53.516113 118.93945 52.84375 A 81.947793 50.646522 0 0 0 64 39.775391 A 81.947793 50.646522 0 0 0 63.853516 39.775391 z M 43.314453 57.166016 C 43.364154 57.165641 43.415143 57.165641 43.464844 57.166016 C 49.394499 57.166016 54.201172 62.353643 54.201172 68.753906 C 54.201172 75.15417 49.394499 80.34375 43.464844 80.34375 C 37.535189 80.34375 32.726564 75.15417 32.726562 68.753906 C 32.725995 62.415975 37.443113 57.254041 43.314453 57.166016 z M 84.535156 57.166016 C 84.584857 57.165641 84.635846 57.165641 84.685547 57.166016 C 90.556888 57.254041 95.272051 62.415975 95.271484 68.753906 C 95.271484 75.15417 90.464812 80.34375 84.535156 80.34375 C 78.605501 80.34375 73.798828 75.15417 73.798828 68.753906 C 73.798828 62.353643 78.605501 57.166016 84.535156 57.166016 z " paint-order="fill markers stroke" transform="scale(.26458)"/></svg>