<svg xmlns="http://www.w3.org/2000/svg" width="128" height="128" viewBox="0 0 33.867 33.867"><defs><linearGradient id="a"><stop offset="0" stop-color="#f6f600"/><stop offset="1" stop-color="#f69134"/></linearGradient></defs><path fill="#06f" d="m 18.855602,12.938228 v 6.518982 h 3.67936 c 0.879475,0 1.400501,-0.728135 1.5875,-1.5875 l 0.727604,-3.343982 c 0.186998,-0.859365 -0.708025,-1.5875 -1.5875,-1.5875 z" paint-order="fill markers stroke"/><path fill="#a8d0ff" d="m 10.579103,12.938228 c -0.8794751,0 -1.5875001,0.708025 -1.5875001,1.5875 v 3.343982 c 0,0.879475 0.708025,1.5875 1.5875001,1.5875 h 3.129605 v -6.518982 z" paint-order="fill markers stroke"/><path fill="#00a1ff" d="M 12.960353,5.9898152 V 31.237369 c 0,0.879475 0.708025,1.5875 1.5875,1.5875 h 3.343982 c 0.879475,0 1.5875,-0.708025 1.5875,-1.5875 V 10.78177 c 0,-2.3767688 0.535298,-3.2044548 2.848921,-3.2044548 h 0.678322 c 0.879475,0 1.5875,-0.708025 1.5875,-1.5875 V 2.6458333 c 0,-0.879475 -0.708025,-1.5875 -1.5875,-1.5875 h -5.114743 c -3.365272,0 -4.931482,2.0545496 -4.931482,4.9314819 z" paint-order="fill markers stroke"/></svg>