<svg xmlns="http://www.w3.org/2000/svg" width="128" height="128" viewBox="0 0 33.867 33.867"><defs><linearGradient id="b"><stop offset="0" stop-color="red"/><stop offset="1" stop-color="red" stop-opacity="0"/></linearGradient><linearGradient id="a"><stop offset="0" stop-color="#f6f600"/><stop offset="1" stop-color="#f69134"/></linearGradient></defs><path fill="#00a1ff" d="M 64 4 A 60.000004 60.000004 0 0 0 4 64 A 60.000004 60.000004 0 0 0 16.351562 100.46094 C 13.899144 107.19424 12.991676 115.08738 15.451172 117.54688 C 18.107373 120.20307 27.100709 118.93805 34.125 116.0332 A 60.000004 60.000004 0 0 0 64 124 A 60.000004 60.000004 0 0 0 124 64 A 60.000004 60.000004 0 0 0 64 4 z " paint-order="fill markers stroke" transform="scale(.26458)"/><path fill="#fff" d="m 25.072397,12.834012 c -0.418536,-0.241643 -1.000605,-0.20004 -1.439333,0.302584 l -2.946057,3.1829 -6.906449,-3.98744 c -1.15556,-0.667162 -2.622817,-0.274011 -3.289978,0.881546 -0.02367,0.04089 -0.224991,0.390554 -0.278096,0.545802 l -1.8758177,5.87546 c -0.4318347,1.262514 1.0195021,2.100442 1.8969537,1.095207 l 2.946058,-3.182902 6.906449,3.987442 c 1.155559,0.667162 2.622816,0.274011 3.289978,-0.881548 0.02368,-0.04087 0.228212,-0.389486 0.278096,-0.5458 l 1.875819,-5.87546 c 0.215917,-0.631256 -0.03909,-1.15615 -0.457623,-1.397791 z" paint-order="fill markers stroke"/><path fill="#06f" d="M 123.94531 61.458984 A 75.749997 75.749997 0 0 1 58.25 99.5 A 75.749997 75.749997 0 0 1 5.7421875 78.347656 A 60.000003 60.000003 0 0 0 16.351562 100.46094 C 13.899145 107.19424 12.991676 115.08738 15.451172 117.54688 C 18.107373 120.20306 27.100709 118.93805 34.125 116.0332 A 60.000003 60.000003 0 0 0 64 124 A 60.000003 60.000003 0 0 0 124 64 A 60.000003 60.000003 0 0 0 123.94531 61.458984 z " paint-order="fill markers stroke" transform="scale(.26458)"/></svg>