<svg xmlns="http://www.w3.org/2000/svg" width="128" height="128" viewBox="0 0 33.867 33.867"><defs><linearGradient id="a"><stop offset="0" stop-color="#f6f600"/><stop offset="1" stop-color="#f69134"/></linearGradient></defs><path fill="#06f" d="m 49.804688,4.0019531 c -25.203048,0 -45.8027353,20.5996869 -45.8027349,45.8027349 -4e-7,11.961134 4.6095466,22.964411 12.1562499,31.123046 l 3.439453,3.722657 c 1.852548,1.685665 3.908625,1.936084 5.953125,0.527343 l 8.660157,-7.648437 c 1.788098,-1.471257 1.659443,-4.865943 0.02148,-6.503906 l -3.398438,-3.673829 c -4.253243,-4.598119 -6.835937,-10.680026 -6.835937,-17.546874 0,-14.468987 11.337654,-25.806641 25.806641,-25.806641 h 28.392578 c 14.468986,0 25.806644,11.741951 25.806644,26.210937 0,14.468983 -11.337658,25.404297 -25.806644,25.404297 h -14.19726 v 19.996094 h 14.19726 c 25.203054,0 45.804684,-20.197345 45.804684,-45.400391 0,-25.203047 -20.60163,-46.2070309 -45.804684,-46.2070309 z" paint-order="fill markers stroke" transform="scale(.26458)"/><path fill="#00a1ff" d="M 51.832031 37.085938 C 48.50805 37.085938 45.832031 39.761957 45.832031 43.085938 L 45.832031 96.3125 C 45.832031 98.733068 43.395471 101.23595 38.814453 99.308594 L 36.925781 98.240234 C 33.95082 96.757523 30.925781 98.85376 30.925781 102.17773 L 30.925781 112.87891 C 30.925781 117.95289 33.3518 119.50391 36.925781 121.00391 C 36.925781 121.00391 67.970703 134.86107 67.970703 103.43164 L 67.970703 95.609375 L 67.970703 75.613281 L 67.970703 43.085938 C 67.970703 39.761957 65.294684 37.085938 61.970703 37.085938 L 51.832031 37.085938 z " paint-order="fill markers stroke" transform="scale(.26458)"/></svg>