<svg xmlns="http://www.w3.org/2000/svg" width="128" height="128" viewBox="0 0 33.867 33.867"><defs><linearGradient id="a"><stop offset="0" stop-color="#f6f600"/><stop offset="1" stop-color="#f69134"/></linearGradient></defs><path fill="#06f" d="M3.7041664 12.136328c.501077-.669569 1.3875737-.72012 2.1130808-.304133l7.1831848 4.118604c.725506.415981.202234 2.24925-.298844 2.91882-.501076.66957-2.112357 1.688619-2.7160606 1.109876L4.0083043 14.249409C3.4045999 13.670665 3.2030888 12.805898 3.7041664 12.136328zM30.162502 12.136328c-.501077-.669569-1.387574-.72012-2.113081-.304133l-7.183185 4.118604c-.725506.415981-.202234 2.24925.298844 2.91882.501076.66957 2.112357 1.688619 2.716061 1.109876l5.977223-5.730086c.603704-.578744.805216-1.443511.304138-2.113081z" paint-order="fill markers stroke"/><path fill="#00a1ff" d="M 64,4 C 47.310751,4 29.875,16.728643 29.875,33.417893 l 0,37.127029 c 0,11.478689 -9.514703,22.68381 -22.65625,26.205078 -3.7625673,0.913671 -4.8236188,6.09986 0,8.25 3.679229,1.86341 10.200521,3.23925 15.117188,3.02734 l 1.976562,4.6836 c 1.07496,2.75694 2.137541,2.88852 5.779297,2.54687 C 45.782236,111.05357 43.069066,124 64,124 c 20.930933,0 18.217759,-12.94643 33.908203,-8.74219 3.641757,0.34165 4.704337,0.21007 5.779297,-2.54687 l 1.97656,-4.6836 c 4.91667,0.21191 11.43796,-1.16393 15.11719,-3.02734 4.82362,-2.15014 3.76257,-7.336329 0,-8.25 C 107.6397,93.228731 98.125,82.023612 98.125,70.544922 l 0,-37.127029 C 98.125,16.728643 80.689249,4 64,4 Z" paint-order="fill markers stroke" transform="scale(.26458)"/></svg>