<svg xmlns="http://www.w3.org/2000/svg" width="128" height="128" viewBox="0 0 33.867 33.867"><defs><linearGradient id="a"><stop offset="0" stop-color="#f6f600"/><stop offset="1" stop-color="#f69134"/></linearGradient></defs><path fill="#00a1ff" d="m 1.3568083,8.5146048 c 0,0 4.3371739,-3.7804195 6.3599005,-5.1176902 C 10.442379,1.5949103 13.797044,2.6040327 14.076602,6.9288418 14.356159,11.253651 15.26472,22.714395 17.85061,21.849433 20.436501,20.984471 25.049172,11.902372 23.930949,10.31661 22.812725,8.7308453 19.10861,10.74909 20.087055,8.0821238 21.065501,5.4151585 24.839506,0.36954825 30.849956,3.1806741 36.860407,5.9918 27.844732,22.930636 19.877388,29.201608 11.910046,35.472581 9.6037132,27.832085 8.4155959,19.975349 7.2274861,12.118613 6.7382637,8.8029259 4.6415946,9.523727 4.1199768,9.703052 2.9953126,10.040095 2.5525012,10.164991 1.2154305,10.542118 0.66450321,9.2286176 1.3568083,8.5146048 Z" paint-order="fill markers stroke"/><path fill="#06f" d="M 119.98047 45.826172 A 97.460935 68.749998 0 0 1 78.515625 71.412109 C 74.696593 77.070506 70.672242 81.50788 67.466797 82.580078 C 64.697776 83.506296 62.439032 80.688421 60.597656 75.808594 A 97.460935 68.749998 0 0 1 37.695312 77.734375 A 97.460935 68.749998 0 0 1 32.150391 77.623047 C 36.74058 106.53934 45.735439 133.50275 75.126953 110.36914 C 92.82593 96.438552 111.87969 68.585639 119.98047 45.826172 z " paint-order="fill markers stroke" transform="scale(.26458)"/></svg>