<svg xmlns="http://www.w3.org/2000/svg" width="128" height="128" viewBox="0 0 33.867 33.867"><defs><linearGradient id="a"><stop offset="0" stop-color="#f6f600"/><stop offset="1" stop-color="#f69134"/></linearGradient></defs><path fill="#00a1ff" d="M 54.216797 9 A 50.499999 43.847853 0 0 0 4 52.847656 A 50.499999 43.847853 0 0 0 20.152344 84.990234 L 14.537109 94.71875 C 12.558606 98.987519 16.593177 101.11847 19.345703 99.529297 L 32.119141 92.154297 A 50.499999 43.847853 0 0 0 54.5 96.695312 A 50.499999 43.847853 0 0 0 105 52.847656 A 50.499999 43.847853 0 0 0 54.5 9 A 50.499999 43.847853 0 0 0 54.216797 9 z " paint-order="fill markers stroke" transform="scale(.26458)"/><path fill="#06f" d="m 23.238622,14.147576 a 9.6137283,8.3473531 0 0 1 9.559815,8.347314 9.6137283,8.3473531 0 0 1 -3.074934,6.119012 l 1.068975,1.852026 c 0.376649,0.81265 -0.391416,1.218321 -0.915416,0.915788 l -2.431691,-1.403984 a 9.6137283,8.3473531 0 0 1 -4.260662,0.864476 9.6137283,8.3473531 0 0 1 -9.61373,-8.347318 9.6137283,8.3473531 0 0 1 9.61373,-8.347314 9.6137283,8.3473531 0 0 1 0.05391,0 z" paint-order="fill markers stroke"/><g fill="#fff" transform="translate(1.81 2.91)"><path d="M8.2868775 9.2913034A1.6360166 1.6360166 0 016.6508608 7.6552872 1.6360166 1.6360166 0 018.2868775 6.0192706 1.6360166 1.6360166 0 019.9228935 7.6552872 1.6360166 1.6360166 0 018.2868775 9.2913034zM16.933335 9.2913034A1.6360166 1.6360166 0 0115.297318 7.6552872 1.6360166 1.6360166 0 0116.933335 6.0192706 1.6360166 1.6360166 0 0118.569351 7.6552872 1.6360166 1.6360166 0 0116.933335 9.2913034z" paint-order="fill markers stroke"/></g><g fill="#fff" transform="translate(10.808 12.237)"><path d="M8.8949156 9.2913034A1.6360166 1.6360166 0 017.2588989 7.6552872 1.6360166 1.6360166 0 018.8949156 6.0192706 1.6360166 1.6360166 0 0110.530932 7.6552872 1.6360166 1.6360166 0 018.8949156 9.2913034zM15.857575 9.2913034A1.6360166 1.6360166 0 0114.221558 7.6552872 1.6360166 1.6360166 0 0115.857575 6.0192706 1.6360166 1.6360166 0 0117.493591 7.6552872 1.6360166 1.6360166 0 0115.857575 9.2913034z" paint-order="fill markers stroke"/></g></svg>