<svg xmlns="http://www.w3.org/2000/svg" width="128" height="128" viewBox="0 0 33.867 33.867"><defs><linearGradient id="a"><stop offset="0" stop-color="#f6f600"/><stop offset="1" stop-color="#f69134"/></linearGradient></defs><path d="M 38.386719 4.0039062 C 38.028006 4.0270882 37.669995 4.1318743 37.330078 4.328125 C 36.121484 5.025907 35.789906 6.5184096 36.408203 7.7695312 L 41.138672 17.341797 C 33.922833 23.678324 29.375 27.846148 29.375 38.248047 L 29.375 40.123047 C 29.375 42.893048 31.605 45.123047 34.375 45.123047 L 93.625 45.123047 C 96.395004 45.123047 98.625 42.893048 98.625 40.123047 L 98.625 38.248047 C 98.625 27.846148 94.077167 23.678324 86.861328 17.341797 L 91.591797 7.7695312 C 92.210094 6.5184096 91.878513 5.025907 90.669922 4.328125 C 90.216704 4.066457 89.728101 3.9681528 89.253906 4.0078125 C 88.463588 4.0739127 87.714441 4.5243609 87.230469 5.25 L 81.677734 13.574219 C 76.508401 10.510828 70.468601 8.75 64 8.75 C 57.5314 8.75 51.491599 10.510828 46.322266 13.574219 L 40.771484 5.25 C 40.287512 4.5243609 39.534463 4.073913 38.744141 4.0078125 C 38.625593 3.9978974 38.50629 3.996179 38.386719 4.0039062 z M 50.5625 27.931641 A 3.889087 3.889087 0 0 1 54.451172 31.820312 A 3.889087 3.889087 0 0 1 50.5625 35.708984 A 3.889087 3.889087 0 0 1 46.673828 31.820312 A 3.889087 3.889087 0 0 1 50.5625 27.931641 z M 77.4375 27.931641 A 3.889087 3.889087 0 0 1 81.326172 31.820312 A 3.889087 3.889087 0 0 1 77.4375 35.708984 A 3.889087 3.889087 0 0 1 73.548828 31.820312 A 3.889087 3.889087 0 0 1 77.4375 27.931641 z M 13 52.507812 C 8.0140004 52.507813 4 56.521811 4 61.507812 L 4 86.007812 C 4 90.993811 8.0140004 95.007812 13 95.007812 C 17.986 95.007812 22 90.993811 22 86.007812 L 22 61.507812 C 22 56.521811 17.986 52.507812 13 52.507812 z M 115 52.507812 C 110.014 52.507813 106 56.521811 106 61.507812 L 106 86.007812 C 106 90.993811 110.014 95.007812 115 95.007812 C 119.986 95.007812 124 90.993811 124 86.007812 L 124 61.507812 C 124 56.521811 119.986 52.507812 115 52.507812 z M 34.375 52.830078 C 31.605 52.830078 29.375 55.060077 29.375 57.830078 L 29.375 97.5 C 29.375 101.378 32.497 104.5 36.375 104.5 L 37.75 104.5 L 37.75 119 C 37.75 121.77 39.979999 124 42.75 124 L 50.75 124 C 53.520001 124 55.75 121.77 55.75 119 L 55.75 104.5 L 72.25 104.5 L 72.25 119 C 72.25 121.77 74.479999 124 77.25 124 L 85.25 124 C 88.020001 124 90.25 121.77 90.25 119 L 90.25 104.5 L 91.625 104.5 C 95.502999 104.5 98.625 101.378 98.625 97.5 L 98.625 57.830078 C 98.625 55.060077 96.395004 52.830078 93.625 52.830078 L 34.375 52.830078 z " paint-order="fill markers stroke" transform="scale(.26458)"/></svg>