<svg xmlns="http://www.w3.org/2000/svg" width="128" height="128" viewBox="0 0 33.867 33.867"><defs><linearGradient id="a"><stop offset="0" stop-color="#f6f600"/><stop offset="1" stop-color="#f69134"/></linearGradient></defs><path d="M 32.416016 8.96875 C 16.673345 8.96875 4 21.644045 4 37.386719 L 4 90.583984 C 4 106.32666 16.673345 119 32.416016 119 L 94.583984 119 C 110.32666 119 123 106.32666 123 90.583984 L 123 59.25 C 123 53.709999 118.54 49.25 113 49.25 L 98.847656 49.25 L 98.847656 37.386719 C 98.847656 21.644045 86.17236 8.96875 70.429688 8.96875 L 32.416016 8.96875 z M 24.621094 34 L 83.050781 34 C 86.441331 34 89.169922 36.730543 89.169922 40.121094 C 89.169922 43.511647 86.441331 46.240234 83.050781 46.240234 L 24.621094 46.240234 C 21.230542 46.240234 18.5 43.511647 18.5 40.121094 C 18.5 36.730543 21.230542 34 24.621094 34 z M 24.621094 82 L 102.87891 82 C 106.26946 82 109 84.730544 109 88.121094 C 109 91.511647 106.26946 94.240234 102.87891 94.240234 L 24.621094 94.240234 C 21.230542 94.240234 18.5 91.511647 18.5 88.121094 C 18.5 84.730544 21.230542 82 24.621094 82 z " paint-order="fill markers stroke" transform="scale(.26458)"/></svg>