<svg xmlns="http://www.w3.org/2000/svg" width="128" height="128" viewBox="0 0 33.867 33.867"><defs><linearGradient id="a"><stop offset="0" stop-color="#f6f600"/><stop offset="1" stop-color="#f69134"/></linearGradient></defs><path d="M 32.300781 6.4765625 A 25.766478 25.766478 0 0 0 6.5351562 32.244141 A 25.766478 25.766478 0 0 0 9.7851562 44.771484 A 57.525128 57.525128 0 0 0 6.4746094 64.001953 A 57.525128 57.525128 0 0 0 64 121.52734 A 57.525128 57.525128 0 0 0 83.072266 118.27344 A 25.766478 25.766478 0 0 0 95.757812 121.61328 A 25.766478 25.766478 0 0 0 121.52539 95.845703 A 25.766478 25.766478 0 0 0 118.21875 83.222656 A 57.525128 57.525128 0 0 0 121.52539 64.001953 A 57.525128 57.525128 0 0 0 64 6.4765625 A 57.525128 57.525128 0 0 0 44.871094 9.7519531 A 25.766478 25.766478 0 0 0 32.300781 6.4765625 z M 64.285156 28.144531 C 64.843399 28.153781 65.410026 28.175071 65.986328 28.207031 C 75.768679 28.749478 82.353849 33.743984 85.466797 38.644531 C 88.579744 43.545082 88.847656 48.535156 88.847656 48.535156 C 89.047393 52.118949 86.304456 55.186281 82.720703 55.386719 C 79.140536 55.58542 76.075682 52.847413 75.871094 49.267578 C 75.871094 49.267578 75.756528 47.594445 74.498047 45.613281 C 73.239562 43.632117 71.461901 41.527296 65.263672 41.183594 C 58.503926 40.808755 55.679073 42.389682 54.183594 43.738281 C 51.718669 45.961111 51.7421 49.234309 52.986328 50.779297 C 54.23056 52.324285 57.775307 55.112019 66.03125 57.822266 C 76.215114 61.45718 81.566368 64.633491 85.134766 69.064453 C 88.722767 73.519752 89.167002 78.802903 88.810547 81.814453 C 88.415046 85.155888 86.898397 89.972878 82.521484 93.919922 C 78.144576 97.866969 71.236467 100.30623 62.015625 99.794922 C 52.233274 99.252477 45.640291 94.257972 42.527344 89.357422 C 39.414396 84.456875 39.154297 79.466797 39.154297 79.466797 C 38.949998 75.882917 41.689571 72.811937 45.273438 72.607422 C 48.859457 72.404324 51.930468 75.148203 52.130859 78.734375 C 52.130859 78.734375 52.245422 80.407508 53.503906 82.388672 C 54.762391 84.369836 56.53224 86.474657 62.730469 86.818359 C 69.490218 87.193198 72.322883 85.612276 73.818359 84.263672 C 76.676594 81.686147 76.259857 78.767644 75.015625 77.222656 C 73.771393 75.677665 70.226646 72.882121 61.970703 70.171875 C 61.927033 70.157535 61.889223 70.143256 61.845703 70.128906 C 61.828753 70.123116 61.811822 70.117228 61.794922 70.111328 C 52.269361 66.962965 46.4245 63.364395 42.859375 58.9375 C 39.271374 54.4822 38.827135 49.201007 39.183594 46.189453 C 39.579091 42.848022 41.095744 38.029078 45.472656 34.082031 C 49.576011 30.381675 55.91152 28.005773 64.285156 28.144531 z " paint-order="fill markers stroke" transform="scale(.26458)"/></svg>