<svg xmlns="http://www.w3.org/2000/svg" width="128" height="128" viewBox="0 0 33.867 33.867"><defs><linearGradient id="a"><stop offset="0" stop-color="#f6f600"/><stop offset="1" stop-color="#f69134"/></linearGradient></defs><path d="M18.330664 27.715104h9.682096c2.656747 0 4.795573-2.138825 4.795573-4.795573 0-2.11892-1.362088-3.904681-3.260783-4.542358.406408-1.039825.614971-2.146426.61495-3.26285 0-4.949996-4.012765-8.9627606-8.962761-8.9627604-.915557.0000937-1.822225.1404417-2.689226.4132448-.54419.1703102-1.57718.8214892-1.57718 2.7135082V26.359114c0 .705991.45822 1.35599 1.397331 1.35599zM13.624865 8.5040372c.507538 0 .916133.6470757.916133 1.4508417 0 0 .392558 5.1082051.395213 7.8275311.0027 2.719326-.395213 8.481852-.395213 8.481852-.02205.803464-.408595 1.450842-.916133 1.450842-.507536 0-.916131-.647075-.916131-1.450842 0 0-.378206-5.696995-.374177-8.418085.004-2.721091.374177-7.8912981.374177-7.8912981.03807-.802864.408595-1.4508417.916131-1.4508417zM10.046794 11.844402c.507538 0 .916133.647075.916133 1.450841 0 0 .392558 3.68607.395213 6.405396.0027 2.719326-.395213 6.563623-.395213 6.563623-.02205.803464-.408595 1.450842-.916133 1.450842-.507536 0-.916131-.647075-.916131-1.450842 0 0-.378206-3.778766-.374177-6.499856.004-2.721091.374177-6.469163.374177-6.469163.03807-.802864.408595-1.450841.916131-1.450841zM6.2103358 12.638152c.507538 0 .916133.647075.916133 1.450841 0 0 .392558 3.68607.395213 6.405396.0027 2.719326-.395213 5.769873-.395213 5.769873-.02205.803464-.408595 1.450842-.916133 1.450842-.507536 0-.916131-.647075-.916131-1.450842 0 0-.378206-2.985016-.374177-5.706106.004-2.721091.374177-6.469163.374177-6.469163.03807-.802864.408595-1.450841.916131-1.450841zM2.3812504 18.657423c.507538 0 .916133.647075.916133 1.450841 0 0 .362605 2.031984.362605 3.16425 0 1.132266-.362605 2.991748-.362605 2.991748-.02205.803464-.408595 1.450842-.916133 1.450842-.507536 0-.916131-.647075-.916131-1.450842 0 0-.4087607-1.59595-.406785-2.927981.00198-1.332031.406785-3.228017.406785-3.228017.03807-.802864.408595-1.450841.916131-1.450841z" paint-order="fill markers stroke"/></svg>