<svg xmlns="http://www.w3.org/2000/svg" width="128" height="128" viewBox="0 0 33.867 33.867"><defs><linearGradient id="b"><stop offset="0" stop-color="red"/><stop offset="1" stop-color="red" stop-opacity="0"/></linearGradient><linearGradient id="a"><stop offset="0" stop-color="#f6f600"/><stop offset="1" stop-color="#f69134"/></linearGradient></defs><path d="M 24 14 C 12.92 14 4 22.920001 4 34 L 4 94 C 4 105.08 12.92 114 24 114 L 104 114 C 115.08 114 124 105.08 124 94 L 124 34 C 124 22.920001 115.08 14 104 14 L 24 14 z M 53.041016 43.138672 C 58.085599 43.419234 65.87488 47.578129 69.298828 49.378906 C 73.512918 51.595248 84.426285 57.242698 84.457031 61.724609 C 84.487645 66.206521 73.654051 71.98052 69.470703 74.246094 C 65.28736 76.51166 54.540262 82.425326 50.326172 80.208984 C 46.112086 77.992643 46.11863 66.43113 46.087891 61.949219 C 46.057276 57.467308 45.890883 45.906195 50.074219 43.640625 C 50.858596 43.215831 51.876881 43.073927 53.041016 43.138672 z " paint-order="fill markers stroke" transform="scale(.26458)"/></svg>