<svg xmlns="http://www.w3.org/2000/svg" width="128" height="128" viewBox="0 0 33.867 33.867"><defs><linearGradient id="a"><stop offset="0" stop-color="#f6f600"/><stop offset="1" stop-color="#f69134"/></linearGradient></defs><path fill="#00a1ff" d="m 32.416013,8.9687501 c -15.742671,0 -28.4160161,12.6752949 -28.4160161,28.4179689 V 90.583984 C 3.9999969,106.32666 16.673342,119 32.416013,119 H 94.583984 C 110.32666,119 123,106.32666 123,90.583984 V 59.25 c 0,-5.540001 -4.46,-10 -10,-10 l -14.151811,0 V 37.386719 c 0,-15.742674 -12.675299,-28.4179689 -28.417972,-28.4179689 z" paint-order="fill markers stroke" transform="scale(.26458)"/><path fill="#fff" d="m 6.5140761,21.695833 20.7062219,0 c 0.897083,0 1.619284,0.722202 1.619284,1.619285 0,0.897084 -0.722201,1.619285 -1.619284,1.619285 l -20.7062219,0 c -0.8970835,0 -1.6192843,-0.722201 -1.6192843,-1.619285 0,-0.897083 0.7222008,-1.619285 1.6192843,-1.619285 z" paint-order="fill markers stroke"/><path fill="#06f" d="M 32.416016 8.96875 C 16.673345 8.96875 4 21.644045 4 37.386719 L 4 49.25 L 98.847656 49.25 L 98.847656 37.386719 C 98.847656 21.644045 86.17236 8.96875 70.429688 8.96875 L 32.416016 8.96875 z " paint-order="fill markers stroke" transform="scale(.26458)"/><path fill="#fff" d="m 6.5140761,8.9958333 15.4596169,0 c 0.897083,0 1.619284,0.7222015 1.619284,1.6192847 0,0.897084 -0.722201,1.619285 -1.619284,1.619285 l -15.4596169,0 c -0.8970835,0 -1.6192843,-0.722201 -1.6192843,-1.619285 0,-0.8970832 0.7222008,-1.6192847 1.6192843,-1.6192847 z" paint-order="fill markers stroke"/></svg>