<svg xmlns="http://www.w3.org/2000/svg" width="128" height="128" viewBox="0 0 33.867 33.867"><defs><linearGradient id="a"><stop offset="0" stop-color="#f6f600"/><stop offset="1" stop-color="#f69134"/></linearGradient></defs><path fill="#06f" d="M 31.485415,16.933332 A 14.552083,14.552083 0 0 1 16.933332,31.485415 14.552083,14.552083 0 0 1 2.3812494,16.933332 14.552083,14.552083 0 0 1 16.933332,2.3812494 14.552083,14.552083 0 0 1 31.485415,16.933332 Z" paint-order="fill markers stroke"/><path style="line-height:normal;font-variant-ligatures:normal;font-variant-position:normal;font-variant-caps:normal;font-variant-numeric:normal;font-variant-alternates:normal;font-variant-east-asian:normal;font-feature-settings:normal;font-variation-settings:normal;text-indent:0;text-align:start;text-decoration-line:none;text-decoration-style:solid;text-decoration-color:#000;text-transform:none;text-orientation:mixed;white-space:normal;shape-padding:0;shape-margin:0;inline-size:0;isolation:auto;mix-blend-mode:normal;solid-color:#000;solid-opacity:1" fill="#00a1ff" d="M 64 4 C 30.922137 4.0000008 4.0000008 30.922141 4 64 C 4 97.077858 30.922136 124 64 124 C 97.077858 124 124 97.077858 124 64 C 124 30.92214 97.077858 4 64 4 z M 64 14.001953 C 71.941273 14.001953 79.438533 15.847485 86.097656 19.123047 C 91.69531 21.496094 95.017578 24.763672 95.017578 24.763672 C 106.58393 33.910208 113.99805 48.062426 113.99805 64 C 113.99805 64.698394 113.97348 65.390724 113.94531 66.082031 C 114.01562 70.72656 112.5332 76.056641 112.5332 76.056641 C 109.65657 87.730674 102.69367 97.76379 93.240234 104.57812 C 90.105468 107.46875 84.072266 109.8125 84.072266 109.8125 C 77.931318 112.49804 71.146926 113.99805 64 113.99805 C 59.049514 113.99805 54.274607 113.27303 49.763672 111.94141 C 44.464842 109.88281 40.431641 108.12305 40.431641 108.12305 C 24.790353 99.773184 14.15094 83.357687 14.011719 64.375 C 13.898438 60.249997 15.029297 53.845703 15.029297 53.845703 C 17.843138 40.132946 26.250265 28.498727 37.771484 21.404297 C 42.167967 18.371093 47.462891 16.800781 47.462891 16.800781 C 52.637747 14.994948 58.198553 14.001953 64 14.001953 z " color="#000" enable-background="accumulate" font-family="sans-serif" font-weight="400" overflow="visible" paint-order="fill markers stroke" transform="scale(.26458)"/><path style="line-height:normal;font-variant-ligatures:normal;font-variant-position:normal;font-variant-caps:normal;font-variant-numeric:normal;font-variant-alternates:normal;font-variant-east-asian:normal;font-feature-settings:normal;font-variation-settings:normal;text-indent:0;text-align:start;text-decoration-line:none;text-decoration-style:solid;text-decoration-color:#000;text-transform:none;text-orientation:mixed;white-space:normal;shape-padding:0;shape-margin:0;inline-size:0;isolation:auto;mix-blend-mode:normal;solid-color:#000;solid-opacity:1" fill="#fff" d="M 47.462891 16.800781 C 47.462891 16.800781 42.167967 18.371093 37.771484 21.404297 C 47.385779 30.203633 55.750201 40.37236 62.761719 51.953125 C 55.273138 56.42873 46.509014 59.001953 37.128906 59.001953 C 29.174108 59.001953 21.691569 57.137225 15.029297 53.845703 C 15.029297 53.845703 13.898438 60.249997 14.011719 64.375 C 21.132931 67.349086 28.948997 68.998047 37.128906 68.998047 C 48.259777 68.998047 58.692206 65.951414 67.638672 60.652344 C 69.209029 63.689707 70.692717 66.814414 72.091797 70.027344 C 56.733209 77.504877 45.029758 91.344696 40.431641 108.12305 C 40.431641 108.12305 44.464842 109.88281 49.763672 111.94141 C 53.297265 97.660538 62.953394 85.805757 75.8125 79.330078 C 79.268662 88.788808 82.033033 98.945524 84.072266 109.8125 C 84.072266 109.8125 90.105468 107.46875 93.240234 104.57812 C 91.167851 94.414461 88.455279 84.804927 85.130859 75.753906 C 89.323691 74.615521 93.735703 74.001953 98.294922 74.001953 C 103.25208 74.001953 108.02527 74.721061 112.5332 76.056641 C 112.5332 76.056641 114.01562 70.72656 113.94531 66.082031 C 108.9495 64.734446 103.70344 64 98.294922 64 C 92.4296 64 86.763412 64.855376 81.400391 66.429688 C 79.67131 62.4383 77.81182 58.569646 75.830078 54.818359 C 84.980814 47.081639 91.782199 36.658805 95.017578 24.763672 C 95.017578 24.763672 91.69531 21.496094 86.097656 19.123047 C 83.932086 29.667389 78.45235 38.993118 70.791016 45.974609 C 64.130005 35.114586 56.327648 25.381895 47.462891 16.800781 z " color="#000" enable-background="accumulate" font-family="sans-serif" font-weight="400" overflow="visible" paint-order="fill markers stroke" transform="scale(.26458)"/></svg>