<svg xmlns="http://www.w3.org/2000/svg" width="128" height="128" viewBox="0 0 33.867 33.867"><defs><linearGradient id="a"><stop offset="0" stop-color="#f6f600"/><stop offset="1" stop-color="#f69134"/></linearGradient></defs><path style="line-height:normal;font-variant-ligatures:normal;font-variant-position:normal;font-variant-caps:normal;font-variant-numeric:normal;font-variant-alternates:normal;font-variant-east-asian:normal;font-feature-settings:normal;font-variation-settings:normal;text-indent:0;text-align:start;text-decoration-line:none;text-decoration-style:solid;text-decoration-color:#000;text-transform:none;text-orientation:mixed;white-space:normal;shape-padding:0;shape-margin:0;inline-size:0;isolation:auto;mix-blend-mode:normal;solid-color:#000;solid-opacity:1" fill="#00a1ff" d="M 12.222509,5.9106757 C 10.048507,5.8791924 7.855492,6.4850821 5.9464069,7.7606918 1.5827848,10.676372 -0.12423207,16.301974 1.8841227,21.150572 c 2.0083545,4.848597 7.1910215,7.618795 12.3382643,6.594945 5.147245,-1.02385 8.875428,-5.566759 8.875428,-10.814842 v -0.981853 c 0,-0.504333 -0.335294,-1.054199 -0.923975,-1.054199 h -9.871749 c -0.663979,0 -1.198376,0.534398 -1.198376,1.198377 v 1.609204 c 0,0.66398 0.534397,1.198376 1.198376,1.198376 h 6.43785 c -0.712829,2.430187 -2.716556,4.330918 -5.312337,4.847249 C 10.162508,24.397298 6.9232446,22.665597 5.6492674,19.589944 4.3752904,16.51429 5.4418198,12.99916 8.2098347,11.149632 10.660327,9.5122655 13.807259,9.6068778 16.130281,11.283474 c 0.438722,0.289463 1.208039,0.380498 1.645895,-0.05736 L 19.158003,9.8432521 C 19.618413,9.2907645 19.259027,8.5507786 18.931144,8.295543 17.24031,6.952893 15.224885,6.1675303 13.152169,5.9633854 12.84323,5.9329578 12.533082,5.9151733 12.222509,5.9106757 Z" color="#000" enable-background="accumulate" font-family="sans-serif" font-weight="400" overflow="visible" paint-order="fill markers stroke"/><path fill="#06f" d="m 28.431339,12.877692 c -0.66398,0 -1.198377,0.534397 -1.198377,1.198376 v 1.333769 h -1.333251 c -0.663978,0 -1.198893,0.534397 -1.198893,1.198376 v 0.65009 c 0,0.66398 0.534915,1.198377 1.198893,1.198376 h 1.333251 v 1.333769 c 0,0.663978 0.534397,1.198377 1.198377,1.198377 h 0.650089 c 0.66398,0 1.198377,-0.534399 1.198377,-1.198377 v -1.333769 h 1.33377 c 0.663977,0 1.198375,-0.534397 1.198375,-1.198376 v -0.65009 c 0,-0.663979 -0.534398,-1.198376 -1.198375,-1.198376 h -1.33377 v -1.333769 c 0,-0.663979 -0.534397,-1.198376 -1.198377,-1.198376 z" paint-order="fill markers stroke"/></svg>