<svg xmlns="http://www.w3.org/2000/svg" width="128" height="128" viewBox="0 0 33.867 33.867"><defs><linearGradient id="a"><stop offset="0" stop-color="#f6f600"/><stop offset="1" stop-color="#f69134"/></linearGradient></defs><path fill="#06f" d="M8.8246385 16.627688A3.8835432 3.8835432 0 014.9410948 20.51123 3.8835432 3.8835432 0 011.0575512 16.627688 3.8835432 3.8835432 0 014.9410948 12.744144 3.8835432 3.8835432 0 018.8246385 16.627688zM32.809116 16.627688a3.8835432 3.8835432 0 01-3.883543 3.883542 3.8835432 3.8835432 0 01-3.883543-3.883542 3.8835432 3.8835432 0 013.883543-3.883544 3.8835432 3.8835432 0 013.883543 3.883544z" paint-order="fill markers stroke"/><path fill="#00a1ff" d="M 27.972664,3.6106217 A 3.236286,3.236286 0 0 0 25.320145,4.9939082 L 19.564499,3.6746743 a 1.1507946,1.1507946 0 0 0 -0.280363,-0.027533 1.1507946,1.1507946 0 0 0 -1.06584,0.7792948 L 16.090548,10.675389 A 14.491369,9.7987551 0 0 0 2.4419609,20.45729 14.491369,9.7987551 0 0 0 16.933332,30.256045 14.491369,9.7987551 0 0 0 31.424702,20.45729 14.491369,9.7987551 0 0 0 18.507088,10.716965 L 20.06118,6.1507698 24.75829,7.2255995 A 3.236286,3.236286 0 0 0 27.972664,10.083194 3.236286,3.236286 0 0 0 31.20895,6.846908 3.236286,3.236286 0 0 0 27.972664,3.6106217 Z" paint-order="fill markers stroke"/><g fill="#fff" transform="matrix(1.08726 0 0 1.08726 48.5 48.165)"><path d="M-33.668228-25.267707a1.918229 1.918229 0 01-1.918229-1.918229 1.918229 1.918229 0 011.918229-1.918229 1.918229 1.918229 0 011.918229 1.918229 1.918229 1.918229 0 01-1.918229 1.918229zM-24.399953-25.267707a1.918229 1.918229 0 01-1.918229-1.918229 1.918229 1.918229 0 011.918229-1.918229 1.918229 1.918229 0 011.918229 1.918229 1.918229 1.918229 0 01-1.918229 1.918229z" opacity=".949" paint-order="fill markers stroke"/></g><path style="line-height:normal;font-variant-ligatures:normal;font-variant-position:normal;font-variant-caps:normal;font-variant-numeric:normal;font-variant-alternates:normal;font-variant-east-asian:normal;font-feature-settings:normal;font-variation-settings:normal;text-indent:0;text-align:start;text-decoration-line:none;text-decoration-style:solid;text-decoration-color:#000;text-transform:none;text-orientation:mixed;white-space:normal;shape-padding:0;shape-margin:0;inline-size:0;isolation:auto;mix-blend-mode:normal;solid-color:#000;solid-opacity:1" fill="#fff" d="m 12.189327,22.843151 a 1.1508609,1.1508609 0 0 0 -0.900385,0.477798 1.1508609,1.1508609 0 0 0 0.259073,1.605402 c 0,0 4.949852,3.408398 10.743027,0.06371 a 1.1508609,1.1508609 0 0 0 0.420462,-1.571426 1.1508609,1.1508609 0 0 0 -1.571426,-0.420462 c -4.75769,2.746856 -8.243611,0.06371 -8.243611,0.06371 a 1.1508609,1.1508609 0 0 0 -0.70714,-0.218724 z" color="#000" enable-background="accumulate" font-family="sans-serif" font-weight="400" overflow="visible" paint-order="fill markers stroke"/></svg>