<svg xmlns="http://www.w3.org/2000/svg" width="128" height="128" viewBox="0 0 33.867 33.867"><defs><linearGradient id="a"><stop offset="0" stop-color="#f6f600"/><stop offset="1" stop-color="#f69134"/></linearGradient></defs><path fill="#00a1ff" d="m 8.5463746,1.7136339 a 6.8173806,6.8173806 0 0 0 -6.8173766,6.8173765 6.8173806,6.8173806 0 0 0 0.8600993,3.3145526 15.22019,15.22019 0 0 0 -0.8759536,5.08826 15.22019,15.22019 0 0 0 15.2201893,15.22019 15.22019,15.22019 0 0 0 5.046147,-0.86109 6.8173806,6.8173806 0 0 0 3.356666,0.88388 6.8173806,6.8173806 0 0 0 6.817377,-6.817376 A 6.8173806,6.8173806 0 0 0 31.27856,22.019111 15.22019,15.22019 0 0 0 32.153523,16.933823 15.22019,15.22019 0 0 0 16.933333,1.7136339 15.22019,15.22019 0 0 0 11.872323,2.580174 6.8173806,6.8173806 0 0 0 8.5463746,1.7136339 Z" paint-order="fill markers stroke"/><path fill="#06f" d="M 6.484375 65.037109 A 57.525128 57.525128 0 0 0 64 121.52734 A 57.525128 57.525128 0 0 0 83.072266 118.27344 A 25.766478 25.766478 0 0 0 95.757812 121.61328 A 25.766478 25.766478 0 0 0 121.52539 95.845703 A 25.766478 25.766478 0 0 0 118.21875 83.222656 A 57.525128 57.525128 0 0 0 121.51562 65.037109 A 95.250001 73.750002 0 0 1 64 80 A 95.250001 73.750002 0 0 1 6.484375 65.037109 z " paint-order="fill markers stroke" transform="scale(.26458)"/><path style="line-height:normal;font-variant-ligatures:normal;font-variant-position:normal;font-variant-caps:normal;font-variant-numeric:normal;font-variant-alternates:normal;font-variant-east-asian:normal;font-feature-settings:normal;font-variation-settings:normal;text-indent:0;text-align:start;text-decoration-line:none;text-decoration-style:solid;text-decoration-color:#000;text-transform:none;text-orientation:mixed;white-space:normal;shape-padding:0;shape-margin:0;inline-size:0;isolation:auto;mix-blend-mode:normal;solid-color:#000;solid-opacity:1" fill="#fff" d="m 64.285156,28.144531 c -8.373636,-0.138758 -14.709145,2.237144 -18.8125,5.9375 -4.376912,3.947047 -5.893565,8.765991 -6.289062,12.107422 -0.356459,3.011554 0.08778,8.292747 3.675781,12.748047 3.565125,4.426895 9.409986,8.025465 18.935547,11.173828 0.0169,0.0059 0.03383,0.01179 0.05078,0.01758 0.04352,0.01435 0.08133,0.02863 0.125,0.04297 8.255943,2.710246 11.80069,5.50579 13.044922,7.050781 1.244232,1.544988 1.660969,4.463491 -1.197266,7.041016 -1.495476,1.348604 -4.328141,2.929526 -11.08789,2.554687 -6.198229,-0.343702 -7.968078,-2.448523 -9.226563,-4.429687 -1.258484,-1.981164 -1.373047,-3.654297 -1.373047,-3.654297 -0.200391,-3.586172 -3.271401,-6.330051 -6.857421,-6.126953 -3.583867,0.204515 -6.32344,3.275495 -6.119141,6.859375 0,0 0.260099,4.990078 3.373047,9.890625 3.112947,4.90055 9.70593,9.895055 19.488281,10.4375 9.220842,0.511305 16.128951,-1.927953 20.505859,-5.875 4.376913,-3.947044 5.893562,-8.764034 6.289063,-12.105469 0.356455,-3.01155 -0.08778,-8.294701 -3.675781,-12.75 C 81.566367,64.633494 76.215114,61.45718 66.03125,57.822266 57.775307,55.112019 54.23056,52.324285 52.986328,50.779297 51.7421,49.234309 51.718669,45.961111 54.183594,43.738281 c 1.495479,-1.348599 4.320332,-2.929526 11.080078,-2.554687 6.198229,0.343702 7.97589,2.448523 9.234375,4.429687 1.258481,1.981164 1.373047,3.654297 1.373047,3.654297 0.204588,3.579835 3.269442,6.317842 6.849609,6.119141 3.583753,-0.200438 6.32669,-3.26777 6.126953,-6.851563 0,0 -0.267912,-4.990074 -3.380859,-9.890625 -3.112948,-4.900547 -9.698118,-9.895053 -19.480469,-10.4375 -0.576302,-0.03196 -1.142929,-0.05325 -1.701172,-0.0625 z" color="#000" enable-background="accumulate" font-family="sans-serif" font-weight="400" overflow="visible" paint-order="fill markers stroke" transform="scale(.26458)"/></svg>