<svg xmlns="http://www.w3.org/2000/svg" width="128" height="128" viewBox="0 0 33.867 33.867"><defs><linearGradient id="a"><stop offset="0" stop-color="#f6f600"/><stop offset="1" stop-color="#f69134"/></linearGradient></defs><path fill="#00a1ff" d="M 16.933332,1.0583315 A 15.875001,15.875001 0 0 1 32.808333,16.933332 15.875001,15.875001 0 0 1 16.933332,32.808333 15.875001,15.875001 0 0 1 1.0583315,16.933332 15.875001,15.875001 0 0 1 16.933332,1.0583315 Z" paint-order="fill markers stroke"/><path fill="#06f" d="M 123.13477 74.152344 A 76.01873 54.749865 0 0 1 64 94.5 A 76.01873 54.749865 0 0 1 4.8652344 74.154297 A 60.000004 60.000004 0 0 0 64 124 A 60.000004 60.000004 0 0 0 123.13477 74.152344 z " paint-order="fill markers stroke" transform="scale(.26458)"/><path style="line-height:normal;font-variant-ligatures:normal;font-variant-position:normal;font-variant-caps:normal;font-variant-numeric:normal;font-variant-alternates:normal;font-variant-east-asian:normal;font-feature-settings:normal;font-variation-settings:normal;text-indent:0;text-align:start;text-decoration-line:none;text-decoration-style:solid;text-decoration-color:#000;text-transform:none;text-orientation:mixed;white-space:normal;shape-padding:0;shape-margin:0;inline-size:0;isolation:auto;mix-blend-mode:normal;solid-color:#000;solid-opacity:1" fill="#fff" d="M14.269531 9.2910156C10.510914 9.4418564 7.8886719 10.271484 7.8886719 10.271484a1.984375 1.984375 0 00-1.3203125 2.476563 1.984375 1.984375 0 002.4746094 1.322265c0 0 9.0970082-2.634647 16.3984372 1.722657a1.984375 1.984375 0 002.720703-.6875 1.984375 1.984375 0 00-.6875-2.720703C22.923241 9.6686264 18.028149 9.1401749 14.269531 9.2910156zM14.34375 15.681641c-3.124633.125398-5.3027344.816406-5.3027344.816406A1.64966 1.64966 0 007.9433594 18.556641 1.64966 1.64966 0 0010 19.654297c0 0 7.56295-2.188743 13.632812 1.433594a1.64966 1.64966 0 002.261719-.572266 1.64966 1.64966 0 00-.570312-2.261719C21.540551 15.995912 17.468383 15.556243 14.34375 15.681641z" color="#000" enable-background="accumulate" font-family="sans-serif" font-weight="400" overflow="visible" paint-order="fill markers stroke"/><path style="line-height:normal;font-variant-ligatures:normal;font-variant-position:normal;font-variant-caps:normal;font-variant-numeric:normal;font-variant-alternates:normal;font-variant-east-asian:normal;font-feature-settings:normal;font-variation-settings:normal;text-indent:0;text-align:start;text-decoration-line:none;text-decoration-style:solid;text-decoration-color:#000;text-transform:none;text-orientation:mixed;white-space:normal;shape-padding:0;shape-margin:0;inline-size:0;isolation:auto;mix-blend-mode:normal;solid-color:#000;solid-opacity:1" fill="#a8d0ff" d="m 14.642578,21.386719 c -2.151015,0.08632 -3.65039,0.560547 -3.65039,0.560547 a 1.135635,1.135635 0 0 0 -0.75586,1.417968 1.135635,1.135635 0 0 0 1.416016,0.75586 c 0,0 5.206236,-1.50731 9.384765,0.986328 A 1.135635,1.135635 0 0 0 22.59375,24.714844 1.135635,1.135635 0 0 0 22.201172,23.15625 c -2.604699,-1.554417 -5.407578,-1.855856 -7.558594,-1.769531 z" color="#000" enable-background="accumulate" font-family="sans-serif" font-weight="400" overflow="visible" paint-order="fill markers stroke"/></svg>