<svg xmlns="http://www.w3.org/2000/svg" width="128" height="128" viewBox="0 0 33.867 33.867"><defs><linearGradient id="b"><stop offset="0" stop-color="red"/><stop offset="1" stop-color="red" stop-opacity="0"/></linearGradient><linearGradient id="a"><stop offset="0" stop-color="#f6f600"/><stop offset="1" stop-color="#f69134"/></linearGradient></defs><path fill="#06f" d="m 24.390134,13.648298 c 0.879471,0 1.587501,-0.70802 1.587501,-1.5875 V 8.7168184 c 0,-0.87948 -0.708073,-1.5787801 -1.587501,-1.5875 h -4.71711 v 6.5189796 z" paint-order="fill markers stroke"/><path fill="#00a1ff" d="m 15.032781,1.058333 c -0.87947,0 -1.5875,0.70803 -1.5875,1.5875001 v 0.2178258 c 0,2.5014412 -1.45238,4.2655413 -3.7970485,4.2655413 H 9.4765314 c -0.8794699,0 -1.5875,0.70802 -1.5875,1.5875 v 3.3439818 c 0,0.87948 0.7080912,1.597864 1.5875,1.5875 h 3.9687496 v 14.145987 c 0,8.315705 10.840166,3.807002 10.840166,3.807002 0.945616,-0.396875 1.5875,-0.807249 1.5875,-2.14974 v -4.575217 c 0,-0.879469 -0.800375,-1.434098 -1.5875,-1.041797 l -1.128097,0.56224 -1.336352,0.56224 c -1.212061,0.509947 -1.856735,-0.152042 -1.856735,-0.792484 V 2.6458331 c 0,-0.8794701 -0.70803,-1.5875001 -1.5875,-1.5875001 z" paint-order="fill markers stroke"/></svg>