<svg xmlns="http://www.w3.org/2000/svg" width="128" height="128" viewBox="0 0 33.867 33.867"><defs><linearGradient id="a"><stop offset="0" stop-color="#f6f600"/><stop offset="1" stop-color="#f69134"/></linearGradient></defs><path fill="#00a1ff" d="m 27.497664,7.3000558 c -0.86566,0 -1.594217,0.1742093 -1.950494,1.410702 -0.475037,1.6486572 -2.545461,5.2743062 -3.719085,7.0906222 -0.835447,1.292957 -1.942804,0.393466 -2.0093,-0.160674 -0.16766,-1.397167 0,-6.7343448 0,-6.7343448 0,-1.0511046 -0.650541,-1.5927703 -1.369224,-1.5927703 h -5.369599 c -0.879848,0 -1.322489,1.0689312 -0.06069,1.8494998 1.094172,0.676869 1.388435,0.7179473 1.388435,1.6713603 v 6.036514 c 0,0.515999 -0.777587,1.095598 -1.42511,0.433121 -0.968894,-0.991267 -4.3032765,-8.006518 -4.3032765,-8.006518 0,0 -0.8799312,-1.9839771 -3.2265815,-1.9839771 H 1.777756 c -0.406285,0 -0.95474787,0.5270552 -0.6186834,1.1823525 0,0 3.9993892,9.6596626 7.6599661,13.6276166 3.6605773,3.967954 6.7064013,4.442992 6.7064013,4.442992 h 3.231499 c 0,0 1.131705,0.02794 1.131705,-1.131706 V 22.12356 c -0.04935,-0.789774 1.014274,-1.386964 1.939441,-0.383347 l 3.409527,3.698563 c 0.841878,0.883963 1.820108,1.127776 2.760275,1.127776 h 4.041385 c 0.622323,0 1.242213,-0.796777 0.234463,-1.804529 l -4.901,-5.600457 c 0,0 -0.782414,-0.698583 -0.111774,-1.76043 0.670639,-1.061847 4.05841,-7.6564744 4.22607,-8.103568 0.451826,-0.9488064 0.138655,-1.9839771 -0.985439,-1.9839771 0,0 -2.860266,-0.013536 -3.003928,-0.013535 z" paint-order="fill markers stroke"/><path fill="#06f" d="M 107.33203 57.958984 A 81.874998 55.125001 0 0 1 42.125 79.75 A 81.874998 55.125001 0 0 1 29.591797 79.099609 C 30.840954 80.74816 32.091644 82.272646 33.332031 83.617188 C 47.167284 98.614179 58.679687 100.4082 58.679688 100.4082 L 70.892578 100.4082 C 70.892578 100.4082 75.169922 100.51377 75.169922 96.130859 L 75.169922 83.617188 C 74.983402 80.632215 79.003306 78.374771 82.5 82.167969 L 95.386719 96.146484 C 98.56862 99.487447 102.26497 100.4082 105.81836 100.4082 L 121.09375 100.4082 C 123.44584 100.4082 125.78733 97.396717 121.97852 93.587891 L 103.45508 72.421875 C 103.45508 72.421875 100.4985 69.780858 103.0332 65.767578 C 103.76677 64.606092 105.42211 61.553343 107.33203 57.958984 z " paint-order="fill markers stroke" transform="scale(.26458)"/></svg>