<svg xmlns="http://www.w3.org/2000/svg" width="128" height="128" viewBox="0 0 33.867 33.867"><defs><linearGradient id="a"><stop offset="0" stop-color="#f6f600"/><stop offset="1" stop-color="#f69134"/></linearGradient></defs><path fill="#00a1ff" d="M 16.93556,1.0583333 C 8.1694332,1.0585159 1.0632121,8.1649784 1.0633273,16.931106 c 1.05e-4,2.882377 0.7850851,5.710321 2.2707003,8.18035 l -0.8496093,5.758465 c -0.2210501,1.410763 0.9090354,2.103084 1.9625067,1.906374 l 6.436493,-1.172806 c 1.919478,0.791969 3.9757,1.19962 6.052142,1.199851 8.766128,1.16e-4 15.872591,-7.106107 15.872773,-15.872234 C 32.808448,8.1647677 25.701898,1.058218 16.93556,1.0583333 Z" paint-order="fill markers stroke"/><path fill="#06f" d="M 123.06445 74.494141 A 96.696845 59.927298 0 0 1 64 86.974609 A 96.696845 59.927298 0 0 1 4.953125 74.503906 C 6.232007 81.686597 8.8108654 88.607628 12.601562 94.910156 L 9.390625 116.67383 C 8.5551601 122.00585 12.825017 124.62238 16.806641 123.87891 L 41.134766 119.44531 C 48.389486 122.43858 56.159843 123.9796 64.007812 123.98047 C 93.554496 123.98086 118.09517 102.61507 123.06445 74.494141 z " paint-order="fill markers stroke" transform="scale(.26458)"/><path style="line-height:normal;font-variant-ligatures:normal;font-variant-position:normal;font-variant-caps:normal;font-variant-numeric:normal;font-variant-alternates:normal;font-variant-east-asian:normal;font-feature-settings:normal;font-variation-settings:normal;text-indent:0;text-align:start;text-decoration-line:none;text-decoration-style:solid;text-decoration-color:#000;text-transform:none;text-orientation:mixed;white-space:normal;shape-padding:0;shape-margin:0;inline-size:0;isolation:auto;mix-blend-mode:normal;solid-color:#000;solid-opacity:1" fill="#fff" d="M 12.476514,8.7612452 C 11.469814,7.7849473 10.057388,9.0119609 9.4642537,9.6688596 8.1854926,11.08509 7.6950735,13.213983 8.3256377,15.294078 c 0.6305448,2.080035 2.1636993,4.173481 4.6984823,6.462259 2.534823,2.288735 4.773407,3.600912 6.906807,4.016534 2.13346,0.415633 4.201403,-0.288867 5.480162,-1.705095 0.593137,-0.656898 1.67006,-2.186845 0.596398,-3.088978 -0.07154,-0.06018 -0.152818,-0.11739 -0.244291,-0.171503 l -3.560497,-1.133098 c -0.596005,-0.242929 -1.105761,0.08722 -1.504348,0.451026 l -1.770333,1.615925 C 17.928749,21.232581 16.724431,20.409844 15.355755,19.17405 13.987104,17.938223 13.046094,16.823876 12.43849,15.881546 l 1.4274,-1.925572 c 0.321354,-0.433539 0.597925,-0.974243 0.295611,-1.542434 L 12.671987,8.9868156 C 12.608848,8.9013216 12.543629,8.8263313 12.476516,8.7612442 Z" color="#000" enable-background="accumulate" font-family="sans-serif" font-weight="400" overflow="visible" paint-order="fill markers stroke"/></svg>