<svg xmlns="http://www.w3.org/2000/svg" width="128" height="128" viewBox="0 0 33.867 33.867"><defs><linearGradient id="b"><stop offset="0" stop-color="red"/><stop offset="1" stop-color="red" stop-opacity="0"/></linearGradient><linearGradient id="a"><stop offset="0" stop-color="#f6f600"/><stop offset="1" stop-color="#f69134"/></linearGradient></defs><path fill="#00a1ff" d="m 6.349999,3.7041659 h 21.166669 c 2.931583,0 5.291666,2.3600833 5.291666,5.2916665 V 24.870835 c 0,2.931584 -2.360083,5.291667 -5.291666,5.291667 H 6.349999 c -2.9315833,0 -5.2916666,-2.360083 -5.2916666,-5.291667 V 8.9958324 c 0,-2.9315832 2.3600833,-5.2916665 5.2916666,-5.2916665 z" paint-order="fill markers stroke"/><path fill="#fff" d="m 13.315429,21.22178 c -1.114977,-0.586407 -1.113096,-3.645317 -1.121229,-4.831156 -0.0081,-1.185839 -0.05198,-4.244481 1.054861,-4.843913 1.106844,-0.599432 3.971533,0.931531 5.086511,1.517938 1.114978,0.586407 4.002282,2.080624 4.010417,3.266463 0.0081,1.185839 -2.858438,2.713786 -3.965282,3.313219 -1.106843,0.599431 -3.9503,2.163856 -5.065278,1.577449 z" paint-order="fill markers stroke"/><path fill="#06f" d="M 4 71.695312 L 4 94 C 4 105.08 12.92 114 24 114 L 104 114 C 115.08 114 124 105.08 124 94 L 124 71.697266 A 100.40916 75.306867 0 0 1 64 86.621094 A 100.40916 75.306867 0 0 1 4 71.695312 z " paint-order="fill markers stroke" transform="scale(.26458)"/></svg>