<svg xmlns="http://www.w3.org/2000/svg" width="128" height="128" viewBox="0 0 33.867 33.867"><defs><linearGradient id="a"><stop offset="0" stop-color="#f6f600"/><stop offset="1" stop-color="#f69134"/></linearGradient></defs><path style="line-height:1.25;-inkscape-font-specification:'Arial Rounded MT Bold, '" d="M3.6434717 6.466271c-1.2897003 0-2.5701522 1.1854394-2.5701522 2.8184327V24.978836c0 1.9604 1.3739962 2.818434 2.710469 2.818434h6.8662075c5.398631 0 6.411495-4.103123 6.411495-5.699395 0-2.194248-1.312939-4.61156-3.29489-5.34851 1.477704-1.055495 2.218986-2.582355 2.218986-4.5837 0-1.596272-1.012864-5.699394-6.4114945-5.699394zm2.1964819 4.295345H8.055839c1.40169 0 3.147611.347836 3.147611 2.14819 0 1.800355-1.7846346 2.108398-2.7450517 2.108398H5.8399536zm0 8.48372h3.694348c.9604164 0 2.7450524.308044 2.7450524 2.108398 0 1.800355-1.745921 2.14819-3.1476117 2.14819H5.8399536zM29.859884 20.835726h-6.401412c0 3.41528 2.317476 3.644034 2.949102 3.644034 2.01929 0 2.649789-.829828 2.942234-1.490815.346373-1.872586 3.222606-1.609173 3.222606.246631 0 2.369858-2.095952 4.561694-6.061012 4.561694-2.275583 0-4.255475-.79745-5.518727-2.346269-1.263251-1.548818-1.684402-3.030317-1.684402-5.683959 0-3.658147 1.232966-5.462166 1.829984-6.22625 2.899294-3.7106174 9.024246-2.828115 10.902033 1.378449.493187 1.104823.739781 2.230298.739781 3.376424 0 1.063522-.255246 1.755327-.765738 2.075416-.510492.309763-1.228642.464645-2.154449.464645zm-6.269121-3.418591h5.266861c0-3.570103-5.266861-3.628382-5.266861 0z" font-family="Arial Rounded MT Bold" font-size="29.037" font-weight="400" letter-spacing="0"/><path d="m 21.994506,7.1561414 h 8.099334 c 0.4405,0 0.795126,0.3546266 0.795126,0.7951268 v 1.2160764 c 0,0.4405003 -0.354626,0.7951268 -0.795126,0.7951268 h -8.099334 c -0.440501,0 -0.795127,-0.3546265 -0.795127,-0.7951268 V 7.9512682 c 0,-0.4405002 0.354626,-0.7951268 0.795127,-0.7951268 z" paint-order="fill markers stroke"/></svg>