<svg xmlns="http://www.w3.org/2000/svg" width="128" height="128" viewBox="0 0 33.867 33.867"><defs><linearGradient id="a"><stop offset="0" stop-color="#f6f600"/><stop offset="1" stop-color="#f69134"/></linearGradient></defs><path style="line-height:normal;font-variant-ligatures:normal;font-variant-position:normal;font-variant-caps:normal;font-variant-numeric:normal;font-variant-alternates:normal;font-variant-east-asian:normal;font-feature-settings:normal;font-variation-settings:normal;text-indent:0;text-align:start;text-decoration-line:none;text-decoration-style:solid;text-decoration-color:#000;text-transform:none;text-orientation:mixed;white-space:normal;shape-padding:0;shape-margin:0;inline-size:0;isolation:auto;mix-blend-mode:normal;solid-color:#000;solid-opacity:1" d="M 46.195312 22.339844 C 37.978612 22.220852 29.690049 24.510829 22.474609 29.332031 C 5.9821794 40.351925 -0.46953845 61.614043 7.1210938 79.939453 C 14.711725 98.264859 34.29976 108.7349 53.753906 104.86523 C 73.208061 100.99557 87.298828 83.825509 87.298828 63.990234 L 87.298828 60.279297 C 87.298828 58.373156 86.031577 56.294922 83.806641 56.294922 L 46.496094 56.294922 C 43.986567 56.294922 41.966797 58.314692 41.966797 60.824219 L 41.966797 66.90625 C 41.966797 69.415781 43.986567 71.435547 46.496094 71.435547 L 70.828125 71.435547 C 68.133968 80.620506 60.560826 87.804372 50.75 89.755859 C 38.40948 92.210545 26.166594 85.665531 21.351562 74.041016 C 16.536531 62.416497 20.567508 49.130967 31.029297 42.140625 C 40.291 35.952153 52.184918 36.309743 60.964844 42.646484 C 62.623006 43.740518 65.530658 44.084584 67.185547 42.429688 L 72.408203 37.203125 C 74.148335 35.114983 72.790024 32.318186 71.550781 31.353516 C 65.160228 26.278933 57.542872 23.310634 49.708984 22.539062 C 48.541341 22.424061 47.369132 22.356843 46.195312 22.339844 z M 107.45703 48.671875 C 104.9475 48.671875 102.92773 50.691645 102.92773 53.201172 L 102.92773 58.242188 L 97.888672 58.242188 C 95.379149 58.242188 93.357422 60.261957 93.357422 62.771484 L 93.357422 65.228516 C 93.357422 67.738046 95.379149 69.757816 97.888672 69.757812 L 102.92773 69.757812 L 102.92773 74.798828 C 102.92773 77.308351 104.9475 79.328125 107.45703 79.328125 L 109.91406 79.328125 C 112.42359 79.328125 114.44336 77.308351 114.44336 74.798828 L 114.44336 69.757812 L 119.48438 69.757812 C 121.99389 69.757812 124.01367 67.738043 124.01367 65.228516 L 124.01367 62.771484 C 124.01367 60.261957 121.99389 58.242188 119.48438 58.242188 L 114.44336 58.242188 L 114.44336 53.201172 C 114.44336 50.691645 112.42359 48.671875 109.91406 48.671875 L 107.45703 48.671875 z " color="#000" enable-background="accumulate" font-family="sans-serif" font-weight="400" overflow="visible" paint-order="fill markers stroke" transform="scale(.26458)"/></svg>