<svg xmlns="http://www.w3.org/2000/svg" width="128" height="128" viewBox="0 0 33.867 33.867"><defs><linearGradient id="a"><stop offset="0" stop-color="#f6f600"/><stop offset="1" stop-color="#f69134"/></linearGradient></defs><path d="M 21.513672 4 A 12.584078 12.584078 0 0 0 9.0097656 16.583984 A 12.584078 12.584078 0 0 0 21.59375 29.167969 A 12.584078 12.584078 0 0 0 34.177734 16.583984 A 12.584078 12.584078 0 0 0 21.59375 4 A 12.584078 12.584078 0 0 0 21.513672 4 z M 15 39.228516 C 11.67603 39.228516 9 41.904535 9 45.228516 L 9 118.03125 C 9 121.35523 11.67602 124.03125 15 124.03125 L 27.638672 124.03125 C 30.962662 124.03125 33.638682 121.35523 33.638672 118.03125 L 33.638672 45.228516 C 33.638682 41.904535 30.962662 39.228516 27.638672 39.228516 L 15 39.228516 z M 51.783203 39.228516 C 48.459233 39.228516 45.783203 41.904535 45.783203 45.228516 L 45.783203 118.03125 C 45.783203 121.35523 48.459222 124.03125 51.783203 124.03125 L 64.421875 124.03125 C 67.745867 124.03125 70.421886 121.35523 70.421875 118.03125 L 70.421875 76.617188 C 78.270103 66.178987 94.376953 69.261665 94.376953 82.623047 L 94.376953 118.03125 C 94.376953 121.35523 97.052972 124.03125 100.37695 124.03125 L 113.01562 124.03125 C 116.33962 124.03125 119.01564 121.35523 119.01562 118.03125 L 119.01562 69.5 C 119.01571 45.455041 82.154814 39.152991 70.421875 51.166016 L 70.421875 45.228516 C 70.421886 41.904535 67.745867 39.228516 64.421875 39.228516 L 51.783203 39.228516 z " paint-order="fill markers stroke" transform="scale(.26458)"/></svg>