<svg xmlns="http://www.w3.org/2000/svg" width="128" height="128" viewBox="0 0 33.867 33.867"><defs><linearGradient id="a"><stop offset="0" stop-color="#f6f600"/><stop offset="1" stop-color="#f69134"/></linearGradient></defs><path d="M 64 4 A 60.000004 60.000004 0 0 0 4 64 A 60.000004 60.000004 0 0 0 64 124 A 60.000004 60.000004 0 0 0 124 64 A 60.000004 60.000004 0 0 0 64 4 z M 59.449219 35.033203 C 72.742412 35.173923 88.790026 37.826085 103.8418 46.808594 A 7.4999999 7.4999999 0 0 1 106.43945 57.091797 A 7.4999999 7.4999999 0 0 1 96.15625 59.689453 C 68.560298 43.220903 34.177734 53.179688 34.177734 53.179688 A 7.4999999 7.4999999 0 0 1 24.826172 48.181641 A 7.4999999 7.4999999 0 0 1 29.816406 38.822266 C 29.816406 38.822266 39.725844 35.685341 53.931641 35.115234 C 55.707366 35.043971 57.550191 35.0131 59.449219 35.033203 z M 58.800781 59.201172 C 69.853738 59.318411 83.199973 61.522853 95.712891 68.990234 A 6.2349353 6.2349353 0 0 1 97.869141 77.539062 A 6.2349353 6.2349353 0 0 1 89.320312 79.703125 C 66.379103 66.012402 37.794922 74.283203 37.794922 74.283203 A 6.2349353 6.2349353 0 0 1 30.021484 70.134766 A 6.2349353 6.2349353 0 0 1 34.169922 62.355469 C 34.169922 62.355469 42.403254 59.743476 54.212891 59.269531 C 55.689095 59.210288 57.221787 59.184423 58.800781 59.201172 z M 58.5 80.785156 C 66.108614 80.864973 75.296191 82.37894 83.910156 87.519531 A 4.2921637 4.2921637 0 0 1 85.394531 93.410156 A 4.2921637 4.2921637 0 0 1 79.509766 94.894531 C 63.7169 85.469758 44.041016 91.166016 44.041016 91.166016 A 4.2921637 4.2921637 0 0 1 38.689453 88.308594 A 4.2921637 4.2921637 0 0 1 41.544922 82.951172 C 41.544922 82.951172 47.211976 81.158295 55.341797 80.832031 C 56.358025 80.791248 57.413055 80.773754 58.5 80.785156 z " paint-order="fill markers stroke" transform="scale(.26458)"/></svg>