<svg xmlns="http://www.w3.org/2000/svg" width="128" height="128" viewBox="0 0 33.867 33.867"><defs><linearGradient id="b"><stop offset="0" stop-color="red"/><stop offset="1" stop-color="red" stop-opacity="0"/></linearGradient><linearGradient id="a"><stop offset="0" stop-color="#f6f600"/><stop offset="1" stop-color="#f69134"/></linearGradient></defs><path d="M 56.816406 4 C 53.492425 4 50.816406 6.6760185 50.816406 10 L 50.816406 10.824219 C 50.816406 20.278485 45.326583 26.945312 36.464844 26.945312 L 35.816406 26.945312 C 32.492426 26.945312 29.816406 29.621294 29.816406 32.945312 L 29.816406 45.583984 C 29.816406 48.908003 32.492656 51.623155 35.816406 51.583984 L 50.816406 51.583984 L 50.816406 105.04883 C 50.816406 136.47826 91.787109 119.4375 91.787109 119.4375 C 95.361091 117.9375 97.787109 116.38648 97.787109 111.3125 L 97.787109 94.019531 C 97.787109 90.695554 94.76207 88.599319 91.787109 90.082031 L 87.523438 92.207031 L 82.472656 94.332031 C 77.891638 96.25939 75.455078 93.758459 75.455078 91.337891 L 75.455078 51.583984 L 92.183594 51.583984 C 95.507579 51.583984 98.183594 48.908003 98.183594 45.583984 L 98.183594 32.945312 C 98.183594 29.621294 95.507416 26.97827 92.183594 26.945312 L 75.455078 26.945312 L 75.455078 10 C 75.455078 6.6760185 72.779059 4 69.455078 4 L 56.816406 4 z " paint-order="fill markers stroke" transform="scale(.26458)"/></svg>