<svg xmlns="http://www.w3.org/2000/svg" width="128" height="128" viewBox="0 0 33.867 33.867"><defs><linearGradient id="a"><stop offset="0" stop-color="#f6f600"/><stop offset="1" stop-color="#f69134"/></linearGradient></defs><path d="M 54.216797 9 A 50.499997 43.847851 0 0 0 4 52.847656 A 50.499997 43.847851 0 0 0 20.152344 84.990234 L 14.537109 94.71875 C 12.558606 98.987519 16.593177 101.11847 19.345703 99.529297 L 32.119141 92.154297 A 50.499997 43.847851 0 0 0 49.017578 96.435547 A 40.843157 35.463063 0 0 1 46.783203 84.869141 A 40.843157 35.463063 0 0 1 87.626953 49.40625 A 40.843157 35.463063 0 0 1 87.855469 49.40625 A 40.843157 35.463063 0 0 1 105 52.773438 A 50.499997 43.847851 0 0 0 54.5 9 A 50.499997 43.847851 0 0 0 54.216797 9 z M 38.066406 33.75 A 6.1833697 6.1833697 0 0 1 38.160156 33.75 A 6.1833697 6.1833697 0 0 1 44.34375 39.933594 A 6.1833697 6.1833697 0 0 1 38.160156 46.117188 A 6.1833697 6.1833697 0 0 1 31.976562 39.933594 A 6.1833697 6.1833697 0 0 1 38.066406 33.75 z M 70.746094 33.75 A 6.1833697 6.1833697 0 0 1 70.839844 33.75 A 6.1833697 6.1833697 0 0 1 77.023438 39.933594 A 6.1833697 6.1833697 0 0 1 70.839844 46.117188 A 6.1833697 6.1833697 0 0 1 64.65625 39.933594 A 6.1833697 6.1833697 0 0 1 70.746094 33.75 z " paint-order="fill markers stroke" transform="scale(.26458)"/><path d="M 87.626953 53.470703 A 36.335351 31.549051 0 0 0 51.291016 85.019531 A 36.335351 31.549051 0 0 0 87.626953 116.56836 A 36.335351 31.549051 0 0 0 103.73047 113.30078 L 112.92188 118.60742 C 114.90235 119.75085 117.80441 118.21792 116.38086 115.14648 L 112.33984 108.14648 A 36.335351 31.549051 0 0 0 123.96289 85.019531 A 36.335351 31.549051 0 0 0 87.830078 53.470703 A 36.335351 31.549051 0 0 0 87.626953 53.470703 z M 74.375 69 A 6.1833697 6.1833697 0 0 1 74.46875 69 A 6.1833697 6.1833697 0 0 1 80.652344 75.183594 A 6.1833697 6.1833697 0 0 1 74.46875 81.367188 A 6.1833697 6.1833697 0 0 1 68.285156 75.183594 A 6.1833697 6.1833697 0 0 1 74.375 69 z M 100.69141 69 A 6.1833697 6.1833697 0 0 1 100.78516 69 A 6.1833697 6.1833697 0 0 1 106.96875 75.183594 A 6.1833697 6.1833697 0 0 1 100.78516 81.367188 A 6.1833697 6.1833697 0 0 1 94.601562 75.183594 A 6.1833697 6.1833697 0 0 1 100.69141 69 z " paint-order="fill markers stroke" transform="scale(.26458)"/></svg>